<svg xmlns="http://www.w3.org/2000/svg" width="24" height="24" data-name="Add Circle" viewBox="0 0 24 24"><path fill="none" d="M0,0H24V24H0Z" data-name="Path 3623"/><path fill="#525863" d="M11180.469,12981.986a9.6,9.6,0,1,1,9.6,9.6A9.6,9.6,0,0,1,11180.469,12981.986Zm1.8,0a7.8,7.8,0,1,0,7.8-7.8A7.813,7.813,0,0,0,11182.268,12981.986Zm6.451,3.6v-2.249h-2.25a1.35,1.35,0,0,1,0-2.7h2.25v-2.253a1.35,1.35,0,1,1,2.7,0v2.253h2.252a1.35,1.35,0,0,1,0,2.7h-2.252v2.249a1.35,1.35,0,0,1-2.7,0Z" data-name="Plus Circle" transform="translate(-11178.068 -12969.982)"/></svg>