<svg xmlns="http://www.w3.org/2000/svg" viewBox="0 0 512 512"><path fill="#a7dbfc" d="M76.6,125.738H391.212a0,0,0,0,1,0,0V423.845a35.668,35.668,0,0,1-35.668,35.668H76.6a35.668,35.668,0,0,1-35.668-35.668V161.406A35.668,35.668,0,0,1,76.6,125.738Z"/><path fill="#76b9de" d="M363.3,226.09V397.6a29.986,29.986,0,0,1-29.986,29.986H41.124A35.672,35.672,0,0,0,76.6,459.513H355.544a35.668,35.668,0,0,0,35.668-35.668V125.738H363.3Z"/><path fill="#e9ffff" d="M40.928,161.406v133.9A158.682,158.682,0,0,0,243.265,142.868a160.453,160.453,0,0,0-.923-17.13H76.6A35.669,35.669,0,0,0,40.928,161.406Z"/><path fill="#76b9de" d="M391.212,301.432V125.738H286.064c-.359,22.474,4.644,63.964,38.141,109.606l38.032,54.221a27.874,27.874,0,0,0,22.82,11.867Z"/><path fill="#fff" d="M254.948,259.8H202.39a21.569,21.569,0,0,1-21.568-21.569V125.738h-53V262.043a50.76,50.76,0,0,0,50.76,50.76h52.558A21.568,21.568,0,0,1,252.7,334.371V459.513h53V310.558A50.76,50.76,0,0,0,254.948,259.8Z"/><rect width="53.004" height="31.932" x="252.704" y="427.581" fill="silver"/><path fill="#a0c797" d="M174.67,361.535H40.928v62.31A35.669,35.669,0,0,0,76.6,459.513H196.5V383.368A21.832,21.832,0,0,0,174.67,361.535Z"/><path fill="#688f5e" d="M41.124,427.581c.1.974.249,1.934.427,2.884.029.151.051.3.081.454.07.347.153.689.233,1.031.049.213.094.428.147.64.081.323.174.641.264.96.064.227.125.455.193.68.094.309.2.614.3.92.077.23.151.46.233.687.106.3.219.591.333.884.09.232.179.464.273.693.117.284.241.566.365.847.1.231.2.461.312.69q.193.412.4.82c.114.227.229.453.347.677q.211.4.433.8.186.333.38.662c.152.257.3.512.462.765.137.22.278.437.419.653.161.247.323.493.49.735.147.214.3.424.452.635.171.237.342.475.519.708.159.209.323.413.486.618.18.227.359.454.544.676.171.2.349.4.525.606s.372.43.564.64.378.4.567.594.381.4.577.6c.211.21.43.412.647.616.184.175.364.354.552.525q.6.543,1.224,1.06c.18.148.366.289.549.434.251.2.5.4.756.594.2.151.408.294.612.441.246.177.491.356.741.527.211.144.427.281.642.42.252.164.5.329.759.487.22.136.444.264.667.4.257.151.514.3.776.446.228.126.459.246.69.368.265.138.53.276.8.408.233.115.467.225.7.334.275.128.55.254.829.375.236.1.475.2.714.3q.423.173.849.335c.244.092.488.182.734.27.289.1.579.2.87.294.247.08.494.159.743.234.3.09.6.174.9.256.247.067.493.135.742.2.311.077.624.147.938.216.247.055.492.111.74.16.323.064.65.119.975.174.244.041.486.086.731.122.345.051.692.091,1.04.132.23.028.46.06.692.082.389.039.782.064,1.174.09.2.013.387.032.582.041q.885.043,1.78.045H196.5V427.581Z"/><path fill="#ff9cb2" d="M390.4,52.49c-45.559.451-81,39.636-78.965,85.151,2.489,55.584,43.551,108.78,65.765,133.662a18.79,18.79,0,0,0,28.055-.039c22.923-25.684,65.849-81.449,65.849-138.885A79.892,79.892,0,0,0,390.4,52.49Z"/><path fill="#f55f6a" d="M434.125,65,368.8,187.877a45.466,45.466,0,0,0-3.186,35.117l16.618,52.287a18.809,18.809,0,0,0,23.029-4.017c22.923-25.684,65.849-81.449,65.849-138.885A79.812,79.812,0,0,0,434.125,65Z"/><circle cx="391.212" cy="131.205" r="41.861" fill="#fff" transform="rotate(-22.5 391.213 131.206)"/><path fill="#333" d="M355.544,464.9A41.1,41.1,0,0,0,396.6,423.845V313.5a5.386,5.386,0,1,0-10.772,0v110.35a30.316,30.316,0,0,1-30.282,30.282h-44.45V310.559a56.21,56.21,0,0,0-56.146-56.147H202.391a16.2,16.2,0,0,1-16.183-16.182V156.817a5.386,5.386,0,0,0-10.772,0V238.23a26.985,26.985,0,0,0,26.955,26.954h52.557a45.427,45.427,0,0,1,45.374,45.375V454.127H76.6a30.316,30.316,0,0,1-30.282-30.282V161.406A30.317,30.317,0,0,1,76.6,131.124H91.508a5.386,5.386,0,1,0,0-10.772H76.6a41.1,41.1,0,0,0-41.054,41.054V423.845A41.1,41.1,0,0,0,76.6,464.9Z"/><path fill="#333" d="M271.765 131.124a5.386 5.386 0 1 0 0-10.772H128.182c-.062 0-.12.016-.182.019s-.12-.019-.182-.019a5.386 5.386 0 0 0-5.386 5.386V262.043a56.208 56.208 0 0 0 56.145 56.145h52.559a16.2 16.2 0 0 1 16.183 16.183v95.77a5.386 5.386 0 1 0 10.772 0v-95.77a26.986 26.986 0 0 0-26.955-26.955H178.577A45.424 45.424 0 0 1 133.2 262.043V131.124zM320.985 93.872a5.383 5.383 0 0 0 7.441-1.627c.763-1.188 1.562-2.364 2.379-3.491a5.387 5.387 0 0 0-8.729-6.314c-.934 1.291-1.848 2.634-2.718 3.991A5.386 5.386 0 0 0 320.985 93.872z"/><path fill="#333" d="M391.211,47.1h-.34a84.535,84.535,0,0,0-51.084,17.244,5.386,5.386,0,1,0,6.5,8.589,73.849,73.849,0,0,1,44.625-15.061h.3a73.056,73.056,0,0,1,53.079,22.746,77.212,77.212,0,0,1,21.326,56.622c-2.314,53.344-41.348,104.644-64.41,130.475a13.212,13.212,0,0,1-9.975,4.47,13.487,13.487,0,0,1-10.044-4.507C357.1,240.7,316.7,187.238,316.7,132.379a74.662,74.662,0,0,1,2.5-19.192,5.386,5.386,0,0,0-10.409-2.769,85.433,85.433,0,0,0-2.858,21.961c0,58.433,42.113,114.345,67.216,142.471a24.176,24.176,0,0,0,36.092.04c24.017-26.9,64.677-80.5,67.136-137.182a88.041,88.041,0,0,0-24.322-64.554A83.722,83.722,0,0,0,391.211,47.1Z"/><path fill="#333" d="M391.212 167.68A36.516 36.516 0 0 1 354.738 131.2a5.386 5.386 0 0 0-10.772 0 47.244 47.244 0 1 0 12.718-32.251 5.387 5.387 0 0 0 7.871 7.356 36.122 36.122 0 0 1 26.657-11.58 36.476 36.476 0 0 1 0 72.951zM196.5 435.528a5.387 5.387 0 0 0 5.386-5.387V383.368a27.251 27.251 0 0 0-27.22-27.219h-102a5.387 5.387 0 0 0 0 10.773h102a16.466 16.466 0 0 1 16.448 16.446v46.773A5.386 5.386 0 0 0 196.5 435.528z"/></svg>