<?xml version="1.0" encoding="iso-8859-1"?>
<!-- Generator: Adobe Illustrator 19.0.0, SVG Export Plug-In . SVG Version: 6.00 Build 0)  -->
<svg version="1.1" id="Capa_1" xmlns="http://www.w3.org/2000/svg" xmlns:xlink="http://www.w3.org/1999/xlink" x="0px" y="0px"
	 viewBox="0 0 511 511" style="enable-background:new 0 0 511 511;" xml:space="preserve">
<path d="M351,104V71h16V24H144v47h16v33H0v236.949l5.182,1.684c3.594,1.168,7.203,2.302,10.818,3.421V487h479V346.054
	c3.615-1.119,7.224-2.253,10.818-3.421l5.182-1.684V104H351z M159,39h193v17H159V39z M175,71h161v33H175V71z M480,472H31V350.535
	c29.245,8.43,59.057,15.243,89,20.326V415h47v-37.589c29.387,3.229,58.938,4.862,88.5,4.862c29.555,0,59.116-1.634,88.5-4.862V415
	h47v-44.139c29.942-5.083,59.755-11.896,89-20.326V472z M135,383h17v17h-17V383z M152,368h-17v-33h17V368z M359,383h17v17h-17V383z
	 M376,368h-17v-33h17V368z M496,330.031c-34.29,10.88-69.545,19.475-105,25.611V320h-47v42.316c-58.763,6.58-118.237,6.58-177,0V320
	h-47v35.642c-35.455-6.136-70.71-14.731-105-25.611V119h481V330.031z"/>
<g>
</g>
<g>
</g>
<g>
</g>
<g>
</g>
<g>
</g>
<g>
</g>
<g>
</g>
<g>
</g>
<g>
</g>
<g>
</g>
<g>
</g>
<g>
</g>
<g>
</g>
<g>
</g>
<g>
</g>
</svg>
